<svg width="318" height="289" viewBox="0 0 318 289" fill="none" xmlns="http://www.w3.org/2000/svg">
<circle cx="158.762" cy="89.6377" r="89.5166" fill="#DCB803"/>
<rect x="112.681" y="123.227" width="92.1621" height="75.5664" fill="#DCB803"/>
<path fill-rule="evenodd" clip-rule="evenodd" d="M200.969 100.885C198.823 100.363 197.527 98.1997 197.829 96.0112C198.073 94.2364 198.199 92.424 198.199 90.582C198.199 88.7401 198.073 86.9276 197.829 85.1529C197.527 82.9644 198.823 80.8014 200.969 80.2791L215.544 76.7326C217.69 76.2103 219.867 77.5256 220.251 79.7012C220.875 83.2479 221.199 86.8854 221.199 90.582C221.199 94.2787 220.875 97.9162 220.251 101.463C219.867 103.639 217.69 104.954 215.544 104.431L200.969 100.885ZM190.222 66.7971C191.556 68.5583 194.001 69.1713 195.888 68.0225L208.701 60.2222C210.588 59.0734 211.196 56.6039 209.929 54.7943C205.74 48.8125 200.531 43.6034 194.549 39.4146C192.74 38.1475 190.27 38.7562 189.122 40.6432L181.321 53.4554C180.172 55.3424 180.785 57.7879 182.547 59.1215C185.444 61.3152 188.029 63.8999 190.222 66.7971ZM164.191 51.5152C166.379 51.8165 168.542 50.5212 169.065 48.3747L172.611 33.7999C173.133 31.6534 171.818 29.4766 169.643 29.0932C166.096 28.4683 162.458 28.1445 158.762 28.1445C155.065 28.1445 151.428 28.4683 147.881 29.0932C145.705 29.4766 144.39 31.6534 144.912 33.7999L148.459 48.3747C148.981 50.5212 151.144 51.8165 153.333 51.5152C155.107 51.2708 156.92 51.1445 158.762 51.1445C160.604 51.1445 162.416 51.2708 164.191 51.5152ZM134.977 59.1215C136.738 57.7879 137.351 55.3424 136.202 53.4554L128.402 40.6432C127.253 38.7562 124.784 38.1475 122.974 39.4146C116.992 43.6034 111.783 48.8125 107.594 54.7943C106.327 56.6039 106.936 59.0734 108.823 60.2222L121.635 68.0225C123.522 69.1713 125.968 68.5583 127.301 66.7971C129.495 63.8999 132.08 61.3152 134.977 59.1215ZM116.554 80.2791C118.701 80.8014 119.996 82.9644 119.695 85.1529C119.45 86.9276 119.324 88.7401 119.324 90.582C119.324 92.424 119.45 94.2364 119.695 96.0112C119.996 98.1997 118.701 100.363 116.554 100.885L101.98 104.431C99.8331 104.954 97.6562 103.638 97.2729 101.463C96.648 97.9162 96.3242 94.2787 96.3242 90.582C96.3242 86.8854 96.648 83.2479 97.2729 79.7012C97.6562 77.5256 99.8331 76.2103 101.98 76.7326L116.554 80.2791ZM127.301 114.367C125.968 112.606 123.522 111.993 121.635 113.142L108.823 120.942C106.936 122.091 106.327 124.56 107.594 126.37C111.783 132.352 116.992 137.561 122.974 141.749C124.784 143.017 127.253 142.408 128.402 140.521L136.202 127.709C137.351 125.822 136.738 123.376 134.977 122.043C132.08 119.849 129.495 117.264 127.301 114.367ZM153.333 129.649C151.144 129.348 148.981 130.643 148.459 132.789L144.912 147.364C144.39 149.511 145.705 151.688 147.881 152.071C151.428 152.696 155.065 153.02 158.762 153.02C162.458 153.02 166.096 152.696 169.643 152.071C171.818 151.688 173.133 149.511 172.611 147.364L169.065 132.789C168.542 130.643 166.379 129.348 164.191 129.649C162.416 129.893 160.604 130.02 158.762 130.02C156.92 130.02 155.107 129.893 153.333 129.649ZM182.547 122.043C180.785 123.376 180.172 125.822 181.321 127.709L189.122 140.521C190.27 142.408 192.74 143.017 194.549 141.749C200.531 137.561 205.74 132.352 209.929 126.37C211.196 124.56 210.588 122.091 208.701 120.942L195.888 113.142C194.001 111.993 191.556 112.606 190.222 114.367C188.029 117.264 185.444 119.849 182.547 122.043Z" fill="#DC8503"/>
<path fill-rule="evenodd" clip-rule="evenodd" d="M13.3522 31.6531C16.281 27.2999 22.1841 26.1451 26.5374 29.0739L53.4114 47.1539C57.7646 50.0827 58.9194 55.9858 55.9907 60.3391C53.0619 64.6923 47.1588 65.847 42.8055 62.9183L15.9315 44.8382C11.5783 41.9095 10.4235 36.0064 13.3522 31.6531ZM304.171 31.6531C307.1 36.0064 305.945 41.9095 301.592 44.8382L274.718 62.9183C270.365 65.847 264.462 64.6923 261.533 60.3391C258.604 55.9858 259.759 50.0827 264.112 47.1539L290.986 29.0739C295.339 26.1451 301.243 27.2999 304.171 31.6531ZM0.475543 87.568C0.603589 82.3228 4.95942 78.1746 10.2046 78.3026L39.0457 79.0067C44.2908 79.1348 48.4391 83.4906 48.311 88.7357C48.183 93.9809 43.8271 98.1291 38.582 98.0011L9.74087 97.297C4.49572 97.1689 0.347497 92.8131 0.475543 87.568ZM317.048 87.568C317.176 92.8131 313.028 97.1689 307.783 97.297L278.942 98.0011C273.696 98.1291 269.341 93.9809 269.213 88.7357C269.085 83.4906 273.233 79.1348 278.478 79.0067L307.319 78.3026C312.564 78.1746 316.92 82.3228 317.048 87.568ZM55.9907 120.829C58.9194 125.182 57.7646 131.085 53.4114 134.014L26.5374 152.094C22.1841 155.023 16.281 153.868 13.3522 149.515C10.4235 145.162 11.5783 139.258 15.9315 136.33L42.8055 118.25C47.1588 115.321 53.0619 116.476 55.9907 120.829ZM261.533 120.829C264.462 116.476 270.365 115.321 274.718 118.25L301.592 136.33C305.945 139.258 307.1 145.162 304.171 149.515C301.243 153.868 295.339 155.023 290.986 152.094L264.112 134.014C259.759 131.085 258.604 125.182 261.533 120.829Z" fill="#DC8503"/>
<circle cx="158.762" cy="90.584" r="41.4941" fill="#DC8503"/>
<circle cx="158.762" cy="90.582" r="15.2695" fill="#DCB803"/>
<rect x="96.3242" y="198.793" width="124.875" height="19.8086" fill="#666666"/>
<rect x="114.975" y="218.602" width="87.5752" height="33.0156" fill="#666666"/>
<rect x="130.883" y="251.617" width="55.7578" height="36.6836" fill="#666666"/>
</svg>
