<svg width="250" height="285" viewBox="0 0 250 285" fill="none" xmlns="http://www.w3.org/2000/svg">
<path d="M210.36 179.871C171.724 218.507 109.083 218.507 70.4467 179.871C31.8107 141.235 31.8107 78.5934 70.4467 39.9574C109.083 1.32148 171.724 1.32148 210.36 39.9574C248.996 78.5934 248.996 141.235 210.36 179.871Z" fill="#00B4B1"/>
<path fill-rule="evenodd" clip-rule="evenodd" d="M203.289 47.0285C168.558 12.2978 112.249 12.2978 77.5178 47.0285C42.787 81.7592 42.787 138.069 77.5178 172.8C112.249 207.53 168.558 207.53 203.289 172.8C238.02 138.069 238.02 81.7592 203.289 47.0285ZM63.3756 32.8864C105.917 -9.65483 174.89 -9.65483 217.431 32.8864C259.972 75.4276 259.972 144.401 217.431 186.942C174.89 229.483 105.917 229.483 63.3756 186.942C20.8344 144.401 20.8344 75.4276 63.3756 32.8864Z" fill="#666666"/>
<path d="M88.5857 137.85C117.204 166.467 163.602 166.467 192.22 137.85C200.365 129.705 206.192 120.12 209.7 109.914C206.192 99.7088 200.365 90.1238 192.22 81.979C163.602 53.3612 117.204 53.3612 88.5857 81.979C80.4409 90.1238 74.6142 99.7088 71.1055 109.914C74.6142 120.12 80.4409 129.705 88.5857 137.85Z" fill="white"/>
<rect x="64.3184" y="183.043" width="37.922" height="100.534" transform="rotate(39.4121 64.3184 183.043)" fill="#666666"/>
<circle cx="140.404" cy="109.912" r="34.939" fill="#00B4B1"/>
<circle cx="140.404" cy="109.914" r="14.3237" fill="#666666"/>
</svg>
