<svg width="1958" height="1436" viewBox="0 0 1958 1436" fill="none" xmlns="http://www.w3.org/2000/svg">
<g clip-path="url(#clip0_399_133)">
<rect width="1956.6" height="1434.84" transform="translate(0.882812 0.490234)" fill="#F0F0F0"/>
<circle cx="8.02601" cy="774.089" r="11.8561" fill="#00B4B1"/>
<circle cx="1775.76" cy="348.592" r="11.8561" fill="#00B4B1"/>
<circle cx="8.02601" cy="806.727" r="11.8561" fill="#00B4B1"/>
<circle cx="1775.76" cy="381.233" r="11.8561" fill="#00B4B1"/>
<circle cx="8.02601" cy="839.362" r="11.8561" fill="#00B4B1"/>
<circle cx="1775.76" cy="413.872" r="11.8561" fill="#00B4B1"/>
<circle cx="8.02601" cy="871.999" r="11.8561" fill="#00B4B1"/>
<circle cx="1775.76" cy="446.508" r="11.8561" fill="#00B4B1"/>
<circle cx="8.02601" cy="904.641" r="11.8561" fill="#00B4B1"/>
<circle cx="1775.76" cy="479.149" r="11.8561" fill="#00B4B1"/>
<circle cx="8.02601" cy="937.272" r="11.8561" fill="#00B4B1"/>
<circle cx="1775.76" cy="511.784" r="11.8561" fill="#00B4B1"/>
<circle cx="40.191" cy="774.089" r="11.8561" fill="#00B4B1"/>
<circle cx="1807.93" cy="348.592" r="11.8561" fill="#00B4B1"/>
<circle cx="40.191" cy="806.727" r="11.8561" fill="#00B4B1"/>
<circle cx="1807.93" cy="381.233" r="11.8561" fill="#00B4B1"/>
<circle cx="40.191" cy="839.362" r="11.8561" fill="#00B4B1"/>
<circle cx="1807.93" cy="413.872" r="11.8561" fill="#00B4B1"/>
<circle cx="40.191" cy="871.999" r="11.8561" fill="#00B4B1"/>
<circle cx="1807.93" cy="446.508" r="11.8561" fill="#00B4B1"/>
<circle cx="40.191" cy="904.641" r="11.8561" fill="#00B4B1"/>
<circle cx="1807.93" cy="479.149" r="11.8561" fill="#00B4B1"/>
<circle cx="40.191" cy="937.272" r="11.8561" fill="#00B4B1"/>
<circle cx="1807.93" cy="511.784" r="11.8561" fill="#00B4B1"/>
<circle cx="72.3532" cy="774.089" r="11.8561" fill="#00B4B1"/>
<circle cx="1840.09" cy="348.592" r="11.8561" fill="#00B4B1"/>
<circle cx="72.3532" cy="806.727" r="11.8561" fill="#00B4B1"/>
<circle cx="1840.09" cy="381.233" r="11.8561" fill="#00B4B1"/>
<circle cx="72.3532" cy="839.362" r="11.8561" fill="#00B4B1"/>
<circle cx="1840.09" cy="413.872" r="11.8561" fill="#00B4B1"/>
<circle cx="72.3532" cy="871.999" r="11.8561" fill="#00B4B1"/>
<circle cx="1840.09" cy="446.508" r="11.8561" fill="#00B4B1"/>
<circle cx="72.3532" cy="904.641" r="11.8561" fill="#00B4B1"/>
<circle cx="1840.09" cy="479.149" r="11.8561" fill="#00B4B1"/>
<circle cx="72.3532" cy="937.272" r="11.8561" fill="#00B4B1"/>
<circle cx="1840.09" cy="511.784" r="11.8561" fill="#00B4B1"/>
<path d="M477.11 156.229C485.876 156.708 493.427 149.986 493.322 141.206C492.991 113.648 487.884 86.3127 478.189 60.4277C466.632 29.5725 448.807 1.44702 425.837 -22.1748C402.868 -45.7966 375.252 -64.4022 344.732 -76.8179C314.213 -89.2337 281.452 -95.1902 248.515 -94.3117C215.578 -93.4333 183.181 -85.7389 153.366 -71.714C123.552 -57.6892 96.9675 -37.638 75.2896 -12.8254C53.6117 11.9872 37.3109 41.0228 27.4153 72.4501C19.1138 98.8151 15.4712 126.383 16.6098 153.921C16.9725 162.693 24.8712 169.004 33.5998 168.058V168.058C42.3284 167.111 48.573 159.265 48.3003 150.489C47.5805 127.329 50.7599 104.173 57.7418 81.9991C66.318 54.7619 80.4455 29.5975 99.2331 8.09316C118.021 -13.4112 141.061 -30.789 166.9 -42.9439C192.739 -55.0989 220.817 -61.7674 249.363 -62.5287C277.908 -63.29 306.301 -58.1277 332.752 -47.3673C359.202 -36.6069 383.136 -20.482 403.043 -0.00966953C422.95 20.4627 438.399 44.8383 448.415 71.5795C456.569 93.3497 460.978 116.303 461.494 139.469C461.689 148.247 468.343 155.749 477.11 156.229V156.229Z" fill="#00B4B1"/>
<path d="M1243.23 360.453L1486.92 -165.613" stroke="#E4E9ED" stroke-width="14.6177" stroke-linecap="round"/>
<path d="M1326.62 355.584L1570.31 -170.482" stroke="#E4E9ED" stroke-width="14.6177" stroke-linecap="round"/>
<path d="M1566.28 1351.7L1604.25 1313.73C1604.88 1313.09 1605.91 1313.09 1606.55 1313.73L1643.37 1350.55C1644 1351.19 1645.03 1351.19 1645.67 1350.55L1682.49 1313.73C1683.12 1313.09 1684.15 1313.09 1684.79 1313.73L1721.61 1350.55C1722.24 1351.19 1723.27 1351.19 1723.91 1350.55L1760.73 1313.73C1761.37 1313.09 1762.39 1313.09 1763.03 1313.73L1799.85 1350.55C1800.49 1351.19 1801.51 1351.19 1802.15 1350.55L1838.97 1313.73C1839.61 1313.09 1840.63 1313.09 1841.27 1313.73L1878.09 1350.55C1878.73 1351.19 1879.76 1351.19 1880.39 1350.55L1917.21 1313.73C1917.85 1313.09 1918.88 1313.09 1919.51 1313.73L1957.48 1351.7" stroke="#EEC8C9" stroke-width="10.7196" stroke-linecap="round"/>
<path d="M1566.28 1415.16L1604.25 1377.19C1604.88 1376.56 1605.91 1376.56 1606.55 1377.19L1643.37 1414.01C1644 1414.65 1645.03 1414.65 1645.67 1414.01L1682.49 1377.19C1683.12 1376.56 1684.15 1376.56 1684.79 1377.19L1721.61 1414.01C1722.24 1414.65 1723.27 1414.65 1723.91 1414.01L1760.73 1377.19C1761.37 1376.56 1762.39 1376.56 1763.03 1377.19L1799.85 1414.01C1800.49 1414.65 1801.51 1414.65 1802.15 1414.01L1838.97 1377.19C1839.61 1376.56 1840.63 1376.56 1841.27 1377.19L1878.09 1414.01C1878.73 1414.65 1879.76 1414.65 1880.39 1414.01L1917.21 1377.19C1917.85 1376.56 1918.88 1376.56 1919.51 1377.19L1957.48 1415.16" stroke="#EEC8C9" stroke-width="10.7196" stroke-linecap="round"/>
<path d="M156.382 1515.03C168.627 1466.48 181.607 1366.83 135.565 1356.66" stroke="#E3EAF2" stroke-width="12.6686" stroke-linecap="round"/>
<path d="M241.925 1515.03C254.17 1466.48 267.15 1366.83 221.108 1356.66" stroke="#E3EAF2" stroke-width="12.6686" stroke-linecap="round"/>
<path d="M327.467 1515.03C339.712 1466.48 352.692 1366.83 306.65 1356.66" stroke="#E3EAF2" stroke-width="12.6686" stroke-linecap="round"/>
<path d="M156.382 1198.29C168.627 1246.84 181.607 1346.49 135.565 1356.66" stroke="#E3EAF2" stroke-width="12.6686" stroke-linecap="round"/>
<path d="M241.925 1198.29C254.17 1246.84 267.15 1346.49 221.108 1356.66" stroke="#E3EAF2" stroke-width="12.6686" stroke-linecap="round"/>
<path d="M327.467 1198.29C339.712 1246.84 352.692 1346.49 306.65 1356.66" stroke="#E3EAF2" stroke-width="12.6686" stroke-linecap="round"/>
</g>
<defs>
<clipPath id="clip0_399_133">
<rect width="1956.6" height="1434.84" fill="white" transform="translate(0.882812 0.490234)"/>
</clipPath>
</defs>
</svg>
