<svg width="286" height="289" viewBox="0 0 286 289" fill="none" xmlns="http://www.w3.org/2000/svg">
<rect x="0.106445" y="0.195312" width="285.3" height="190.199" fill="#444444"/>
<path fill-rule="evenodd" clip-rule="evenodd" d="M91.0859 152.578C122.723 152.578 148.369 126.932 148.369 95.2949C148.369 63.6583 122.723 38.0117 91.0859 38.0117C59.4493 38.0117 33.8027 63.6583 33.8027 95.2949C33.8027 126.932 59.4493 152.578 91.0859 152.578ZM91.0859 125.699C107.878 125.699 121.49 112.087 121.49 95.2949C121.49 78.5031 107.878 64.8906 91.0859 64.8906C74.2941 64.8906 60.6816 78.5031 60.6816 95.2949C60.6816 112.087 74.2941 125.699 91.0859 125.699Z" fill="#30A5FF"/>
<circle cx="173.43" cy="44.9785" r="10.6875" fill="#30A5FF"/>
<circle cx="173.43" cy="112.754" r="10.6875" fill="#30A5FF"/>
<rect x="196.866" y="34.291" width="55.7402" height="21.375" rx="10.6875" fill="#30A5FF"/>
<rect x="162.742" y="68.1797" width="89.8643" height="21.375" rx="10.6875" fill="#30A5FF"/>
<rect x="162.742" y="135.953" width="89.8643" height="21.375" rx="10.6875" fill="#30A5FF"/>
<rect x="196.866" y="102.066" width="55.7402" height="21.375" rx="10.6875" fill="#30A5FF"/>
<rect x="0.106445" y="190.395" width="285.3" height="46.4277" fill="#CCCCCC"/>
<rect x="99.7246" y="236.822" width="86.0635" height="35.4707" fill="#CCCCCC"/>
<rect x="68.3301" y="272.293" width="148.852" height="16.4688" fill="#CCCCCC"/>
</svg>
